<svg width="84" height="84" fill="none" xmlns="http://www.w3.org/2000/svg"><path d="M71.695 43.994h-8.222c-1.12 0-2.203.153-3.234.434-2.034-3.999-6.187-6.746-10.972-6.746H34.733c-4.785 0-8.938 2.747-10.972 6.746a12.271 12.271 0 00-3.234-.434h-8.222C5.52 43.994 0 49.514 0 56.298v13.145c0 4.07 3.312 7.383 7.383 7.383h69.234c4.071 0 7.383-3.312 7.383-7.383V56.298c0-6.784-5.52-12.304-12.305-12.304zm-49.267 5.993v21.917H7.383a2.464 2.464 0 01-2.461-2.461V56.299c0-4.071 3.312-7.383 7.383-7.383h8.222c.668 0 1.315.09 1.931.258-.018.269-.03.54-.03.813zM56.65 71.904h-29.3V49.987c0-4.071 3.312-7.383 7.383-7.383h14.534c4.071 0 7.383 3.312 7.383 7.383v21.917zm22.428-2.461a2.464 2.464 0 01-2.46 2.46H61.571V49.988c0-.274-.012-.544-.03-.814a7.367 7.367 0 011.93-.257h8.223c4.071 0 7.383 3.312 7.383 7.382v13.145z" fill="#22224A"/><path d="M16.416 20.755c-6.03 0-10.934 4.905-10.934 10.934 0 6.029 4.905 10.934 10.934 10.934 6.029 0 10.934-4.905 10.934-10.934 0-6.03-4.905-10.934-10.934-10.934zm0 16.946a6.02 6.02 0 01-6.012-6.012 6.019 6.019 0 016.012-6.013 6.019 6.019 0 016.012 6.013 6.019 6.019 0 01-6.012 6.012zM42 7.174c-8.055 0-14.608 6.553-14.608 14.608S33.945 36.39 42 36.39s14.608-6.553 14.608-14.608S50.055 7.174 42 7.174zm0 24.294c-5.34 0-9.686-4.345-9.686-9.686 0-5.34 4.345-9.686 9.686-9.686 5.34 0 9.686 4.345 9.686 9.686S47.34 31.468 42 31.468zm25.584-10.713c-6.03 0-10.934 4.905-10.934 10.934 0 6.029 4.905 10.934 10.934 10.934 6.029 0 10.934-4.905 10.934-10.934 0-6.03-4.905-10.934-10.934-10.934zm0 16.946a6.02 6.02 0 01-6.012-6.012 6.02 6.02 0 016.012-6.013 6.019 6.019 0 016.012 6.013 6.019 6.019 0 01-6.012 6.012z" fill="#22224A"/></svg>