<svg width="84" height="84" fill="none" xmlns="http://www.w3.org/2000/svg"><g clip-path="url(#clip0)" fill="#22224A"><path d="M42 37.8c-.205 0-.407-.045-.596-.133l-23.8-11.2a1.402 1.402 0 010-2.534l23.8-11.2a1.4 1.4 0 011.192 0l23.8 11.2a1.402 1.402 0 010 2.534l-23.8 11.2A1.408 1.408 0 0142 37.8zM21.488 25.2L42 34.853 62.51 25.2 42 15.547 21.488 25.2z"/><path d="M42 49c-.214 0-.43-.049-.626-.147l-16.8-8.4A1.402 1.402 0 0123.8 39.2V28.494a1.399 1.399 0 011.995-1.267L42 34.853l16.204-7.626a1.399 1.399 0 011.996 1.267V39.2c0 .53-.3 1.015-.774 1.253l-16.8 8.4A1.402 1.402 0 0142 49zM26.6 38.335l15.4 7.7 15.4-7.7V30.7l-14.804 6.966a1.4 1.4 0 01-1.192 0L26.6 30.701v7.634zM65.8 26.6H42a1.4 1.4 0 010-2.8h23.8a1.4 1.4 0 010 2.8z"/><path d="M65.8 39.2a1.4 1.4 0 01-1.4-1.4V25.2a1.4 1.4 0 012.8 0v12.6a1.4 1.4 0 01-1.4 1.4zM42 29.4a1.4 1.4 0 01-1.4-1.4v-5.6a1.4 1.4 0 012.8 0V28a1.4 1.4 0 01-1.4 1.4z"/><path d="M62.998 43.4a1.401 1.401 0 01-1.163-2.177l2.8-4.2a1.401 1.401 0 012.33 1.554l-2.8 4.2a1.4 1.4 0 01-1.167.623z"/><path d="M68.601 43.4a1.4 1.4 0 01-1.166-.623l-2.8-4.2a1.401 1.401 0 01.388-1.942 1.398 1.398 0 011.942.388l2.8 4.2A1.401 1.401 0 0168.6 43.4zM42 42a1.4 1.4 0 01-1.4-1.4v-4.2a1.4 1.4 0 012.8 0v4.2A1.4 1.4 0 0142 42z"/><path d="M82.6 54.6H1.4A1.4 1.4 0 010 53.2V7.001A5.608 5.608 0 015.601 1.4H78.4A5.608 5.608 0 0184 7.001V53.2a1.4 1.4 0 01-1.4 1.4zM2.8 51.8h78.4V7.001A2.803 2.803 0 0078.399 4.2H5.6a2.803 2.803 0 00-2.8 2.801V51.8z"/><path d="M78.399 65.8H5.6A5.608 5.608 0 010 60.199V53.2a1.4 1.4 0 011.4-1.4h81.2a1.4 1.4 0 011.4 1.4v6.999a5.608 5.608 0 01-5.601 5.601zM2.8 54.6v5.599A2.803 2.803 0 005.601 63H78.4a2.803 2.803 0 002.801-2.801V54.6H2.8z"/><path d="M46.2 60.2h-8.4a1.4 1.4 0 010-2.8h8.4a1.4 1.4 0 010 2.8zM77 54.6H7a1.4 1.4 0 01-1.4-1.4V8.4A1.4 1.4 0 017 7h70a1.4 1.4 0 011.4 1.4v44.8a1.4 1.4 0 01-1.4 1.4zM8.4 51.8h67.2v-42H8.4v42zm51.8 30.8H23.8a4.205 4.205 0 01-4.2-4.2c0-2.316 1.884-4.2 4.2-4.2h36.4c2.316 0 4.2 1.884 4.2 4.2 0 2.316-1.884 4.2-4.2 4.2zM23.8 77c-.771 0-1.4.629-1.4 1.4 0 .771.629 1.4 1.4 1.4h36.4c.771 0 1.4-.629 1.4-1.4 0-.771-.629-1.4-1.4-1.4H23.8z"/><path d="M57.4 77H26.6a1.4 1.4 0 010-2.8c4.645 0 7-3.297 7-9.8A1.4 1.4 0 0135 63h14a1.4 1.4 0 011.4 1.4c0 6.503 2.355 9.8 7 9.8a1.4 1.4 0 010 2.8zm-23.98-2.8h17.162c-1.725-1.91-2.74-4.753-2.943-8.4H36.362c-.204 3.647-1.218 6.49-2.943 8.4z"/></g><defs><clipPath id="clip0"><path fill="#fff" d="M0 0h84v84H0z"/></clipPath></defs></svg>