<svg width="84" height="84" fill="none" xmlns="http://www.w3.org/2000/svg"><path d="M81.54.164H51.843c-4.021 0-7.597 1.939-9.844 4.93-2.247-2.991-5.823-4.93-9.844-4.93H2.461A2.461 2.461 0 000 2.625v68.906a2.461 2.461 0 002.46 2.461h59.566l1.813 4.982a7.335 7.335 0 003.818 4.166 7.36 7.36 0 003.115.696c.852 0 1.706-.15 2.53-.45 3.802-1.383 5.78-5.586 4.435-9.394h3.802A2.46 2.46 0 0084 71.532V2.624a2.46 2.46 0 00-2.46-2.46zM51.843 5.086h27.234v54.14h-6.713l-2.205-6.058c4.934-4.805 6.893-12.24 4.389-19.12a17.93 17.93 0 00-9.332-10.185 17.93 17.93 0 00-13.799-.602 17.97 17.97 0 00-6.957 4.564V12.469c0-4.071 3.312-7.383 7.383-7.383zM44.46 52.614a18.033 18.033 0 005.502 3.962 18.04 18.04 0 006.325 1.652l.363.999h-4.807c-2.768 0-5.325.918-7.383 2.466v-9.079zm7.582-.5a13.039 13.039 0 01-6.786-7.405 13.04 13.04 0 01.438-10.036 13.038 13.038 0 017.407-6.787 13.064 13.064 0 014.475-.792c5.363 0 10.409 3.313 12.347 8.636 2.475 6.801-1.044 14.348-7.845 16.823a13.038 13.038 0 01-10.036-.438zM4.922 5.087h27.234c4.071 0 7.383 3.312 7.383 7.383v49.224a12.244 12.244 0 00-7.383-2.466H4.922V5.086zm0 59.062h27.234c3.209 0 5.944 2.058 6.96 4.922H4.922v-4.922zm39.962 4.922c1.016-2.864 3.752-4.922 6.96-4.922h6.599l1.791 4.922h-15.35zm26.734 9.692a2.445 2.445 0 01-1.881-.082 2.445 2.445 0 01-1.273-1.39l-7.071-19.427a18.099 18.099 0 004.625-1.685l7.071 19.43a2.464 2.464 0 01-1.47 3.154zm4.33-9.692l-1.792-4.922h4.922v4.922h-3.13z" fill="#22224A"/><path d="M12.305 14.93h19.851a2.461 2.461 0 000-4.922H12.305a2.461 2.461 0 000 4.922zm0 9.843h19.851a2.461 2.461 0 000-4.921H12.305a2.461 2.461 0 000 4.921zm0 9.844h19.851a2.461 2.461 0 000-4.922H12.305a2.461 2.461 0 000 4.922zm0 9.843h19.851a2.461 2.461 0 000-4.92H12.305a2.461 2.461 0 000 4.92zm22.312 7.384a2.461 2.461 0 00-2.46-2.461H12.304a2.461 2.461 0 000 4.922h19.851a2.461 2.461 0 002.461-2.461zM51.844 14.93h19.851a2.461 2.461 0 000-4.922H51.844a2.461 2.461 0 000 4.922z" fill="#22224A"/></svg>