<svg width="84" height="84" fill="none" xmlns="http://www.w3.org/2000/svg"><path d="M53.399 71.04H12.96c-4.433 0-8.04-3.607-8.04-8.04 0-4.433 3.607-8.04 8.04-8.04h15.75c7.147 0 12.96-5.813 12.96-12.96 0-7.147-5.813-12.96-12.96-12.96H20.1a12.632 12.632 0 010 4.92h8.61c4.433 0 8.039 3.607 8.039 8.04 0 4.433-3.606 8.04-8.04 8.04H12.96C5.815 50.04 0 55.852 0 63c0 7.147 5.814 12.96 12.96 12.96H53.4a12.632 12.632 0 010-4.92zm12.391-5.25c-4.253 0-7.712 3.458-7.712 7.71s3.46 7.71 7.711 7.71c4.252 0 7.711-3.458 7.711-7.71s-3.46-7.71-7.71-7.71zm-42.33-63H7.71a2.461 2.461 0 00-2.46 2.46v18.944C2.202 25.224 0 28.11 0 31.5c0 4.252 3.46 7.71 7.71 7.71 4.253 0 7.712-3.458 7.712-7.71 0-3.391-2.202-6.276-5.25-7.306v-5.983H23.46a2.461 2.461 0 002.46-2.461V5.25c0-1.36-1.101-2.46-2.46-2.46zm42.33 5.25c-10.043 0-18.212 8.168-18.212 18.21a18.113 18.113 0 006.501 13.948l9.517 18.67c.912 1.788 3.474 1.788 4.386 0l9.517-18.67A18.112 18.112 0 0084 26.25c0-10.042-8.17-18.21-18.21-18.21zm0 25.92c-4.253 0-7.712-3.458-7.712-7.71s3.46-7.71 7.711-7.71c4.252 0 7.711 3.458 7.711 7.71s-3.46 7.71-7.71 7.71z" fill="#22224A"/></svg>