<svg width="20" height="20" fill="none" xmlns="http://www.w3.org/2000/svg"><g clip-path="url(#clip0)" fill="#000"><path d="M17.895 5.262a.833.833 0 00-.387 1.113A8.248 8.248 0 0118.333 10c0 4.595-3.738 8.333-8.333 8.333-4.595 0-8.333-3.738-8.333-8.333 0-4.595 3.738-8.333 8.333-8.333 1.904 0 3.693.621 5.173 1.798A.833.833 0 1016.21 2.16 10.016 10.016 0 0010 0C4.486 0 0 4.486 0 10s4.486 10 10 10 10-4.486 10-10a9.899 9.899 0 00-.992-4.35.832.832 0 00-1.113-.388z"/><path d="M10 3.333a.834.834 0 00-.834.834V10c0 .46.374.833.834.833h4.166a.834.834 0 000-1.666h-3.333v-5A.834.834 0 0010 3.333z"/></g><defs><clipPath id="clip0"><path fill="#fff" d="M0 0h20v20H0z"/></clipPath></defs></svg>