<svg width="20" height="20" fill="none" xmlns="http://www.w3.org/2000/svg"><path d="M17.07 10.475h-1.957a2.92 2.92 0 00-.77.103 2.932 2.932 0 00-2.613-1.606H8.27c-1.14 0-2.128.654-2.613 1.606a2.92 2.92 0 00-.77-.103H2.93A2.933 2.933 0 000 13.405v3.129c0 .97.789 1.758 1.758 1.758h16.484A1.76 1.76 0 0020 16.534v-3.13a2.933 2.933 0 00-2.93-2.93zM5.34 11.902v5.218H1.758a.587.587 0 01-.586-.586v-3.13c0-.969.788-1.757 1.758-1.757h1.957c.16 0 .314.021.46.061a2.944 2.944 0 00-.007.194zm8.148 5.218H6.512v-5.218c0-.97.788-1.758 1.758-1.758h3.46c.97 0 1.758.788 1.758 1.758v5.218zm5.34-.586a.587.587 0 01-.586.586H14.66v-5.218c0-.066-.003-.13-.007-.194.146-.04.3-.061.46-.061h1.957c.97 0 1.758.788 1.758 1.757v3.13z" fill="#22224A"/><path d="M3.909 4.942a2.606 2.606 0 00-2.604 2.603 2.606 2.606 0 002.604 2.603 2.606 2.606 0 002.603-2.603 2.606 2.606 0 00-2.603-2.603zm0 4.034c-.79 0-1.432-.642-1.432-1.431 0-.79.642-1.432 1.432-1.432a1.432 1.432 0 010 2.863zM10 1.708a3.482 3.482 0 00-3.478 3.478A3.482 3.482 0 0010 8.664a3.482 3.482 0 003.478-3.478A3.482 3.482 0 0010 1.708zm0 5.784a2.309 2.309 0 01-2.306-2.306A2.309 2.309 0 0110 2.88a2.309 2.309 0 012.306 2.306A2.309 2.309 0 0110 7.492zm6.092-2.55a2.606 2.606 0 00-2.604 2.603 2.606 2.606 0 002.604 2.603 2.606 2.606 0 002.603-2.603 2.606 2.606 0 00-2.603-2.603zm0 4.034c-.79 0-1.432-.642-1.432-1.431 0-.79.642-1.432 1.432-1.432a1.432 1.432 0 010 2.863z" fill="#22224A"/></svg>