<svg width="80" height="80" fill="none" xmlns="http://www.w3.org/2000/svg"><path d="M41.688 38.388c-.014-.014-.017-.032-.03-.045L28.28 24.967v-8.404c0-.623-.247-1.218-.686-1.658L13.533.687a2.345 2.345 0 00-4.001 1.657v7.031H2.344a2.34 2.34 0 00-2.165 1.447 2.341 2.341 0 00.508 2.554l14.219 14.219a2.34 2.34 0 001.657.686h8.405l13.375 13.376c.013.013.032.017.046.03a2.303 2.303 0 003.223 0c.974-.93.952-2.38.075-3.299z" fill="#22224A"/><path d="M40 0c-5.997 0-11.667 1.526-16.773 3.91l7.19 7.19A30.3 30.3 0 0140 9.531C56.8 9.532 70.47 23.2 70.47 40S56.8 70.469 40 70.469 9.532 56.8 9.532 40c0-3.35.564-6.566 1.567-9.584l-7.19-7.19C1.526 28.334 0 34.004 0 40c0 21.97 18.03 40 40 40s40-18.03 40-40S61.97 0 40 0z" fill="#22224A"/><path d="M40 18.906c-2.477 0-4.82.508-7.03 1.296v2.824l5.417 5.419c.532-.075 1.061-.164 1.613-.164 6.462 0 11.72 5.258 11.72 11.72 0 6.46-5.258 11.718-11.72 11.718-6.461 0-11.718-5.258-11.718-11.719 0-.552.088-1.08.163-1.613l-5.418-5.418h-2.825c-.787 2.21-1.295 4.554-1.295 7.031 0 11.632 9.462 21.094 21.093 21.094 11.632 0 21.094-9.462 21.094-21.094 0-11.632-9.462-21.094-21.094-21.094z" fill="#22224A"/></svg>