<svg width="80" height="80" fill="none" xmlns="http://www.w3.org/2000/svg"><g clip-path="url(#clip0)" fill="#22224A"><path d="M35.458 62.492c-3.119 2.882-7.432 3.527-11.258 1.685a10.256 10.256 0 01-3.465-2.687l-5.21 11.522a.974.974 0 00.153 1.065.974.974 0 001.03.313l3.792-1.055a4.833 4.833 0 015.651 2.555l1.713 3.544c.25.518.72.57.915.566a.973.973 0 00.9-.59l8.286-18.328a6.218 6.218 0 00-2.507 1.41zm29.016 10.52l-5.21-11.522a10.254 10.254 0 01-3.464 2.687c-3.826 1.842-8.14 1.197-11.258-1.685a6.217 6.217 0 00-2.507-1.41l8.286 18.329a.973.973 0 00.9.589.968.968 0 00.914-.566l1.713-3.544a4.832 4.832 0 015.651-2.555l3.793 1.055a.974.974 0 001.029-.313.974.974 0 00.153-1.065z"/><path d="M68.566 32.467c-4.327-2.962-5.67-8.844-3.057-13.39 1.57-2.734.754-5.434-.535-7.05-1.289-1.616-3.74-3.014-6.754-2.09-5.013 1.535-10.45-1.083-12.375-5.96C44.688 1.045 42.067 0 40 0c-2.067 0-4.688 1.045-5.845 3.977-1.926 4.877-7.362 7.495-12.376 5.96-3.014-.923-5.464.474-6.753 2.09-1.289 1.616-2.106 4.316-.536 7.05 2.613 4.546 1.27 10.428-3.056 13.39-2.6 1.782-3.036 4.57-2.576 6.584.46 2.015 2.061 4.338 5.177 4.814 5.184.792 8.945 5.509 8.564 10.739-.23 3.144 1.68 5.222 3.541 6.119 1.862.897 4.677 1.093 6.992-1.047A10.097 10.097 0 0140 57.007c2.471 0 4.942.89 6.867 2.67 2.316 2.139 5.13 1.943 6.992 1.046s3.77-2.975 3.541-6.12c-.38-5.23 3.38-9.946 8.564-10.738 3.116-.476 4.718-2.799 5.178-4.814.46-2.015.024-4.803-2.576-6.584zM40 52.488c-11.34 0-20.566-9.226-20.566-20.566 0-11.34 9.226-20.565 20.566-20.565 11.34 0 20.565 9.226 20.565 20.565 0 11.34-9.225 20.566-20.565 20.566z"/><path d="M40 15.191c-9.226 0-16.731 7.506-16.731 16.731 0 9.226 7.505 16.732 16.73 16.732 9.226 0 16.732-7.506 16.732-16.732 0-9.225-7.506-16.73-16.731-16.73zm8.574 15.11L38.16 37.905a1.917 1.917 0 01-2.7-.447l-3.114-4.434a1.917 1.917 0 013.137-2.204l1.993 2.836 8.835-6.453a1.917 1.917 0 112.262 3.096z"/></g><defs><clipPath id="clip0"><path fill="#fff" d="M0 0h80v80H0z"/></clipPath></defs></svg>