<svg width="80" height="80" fill="none" xmlns="http://www.w3.org/2000/svg"><path d="M57.188 61.875a1.563 1.563 0 100 3.126 1.563 1.563 0 000-3.126z" fill="#22224A"/><path d="M61.035 56.822l-7.427-2.475-2.666-5.332c2.402-2.445 4.07-5.68 4.632-9.053l.332-1.993h2.844a4.693 4.693 0 004.688-4.688v-9.843C63.438 10.514 52.922 0 40 0 27.043 0 16.562 10.484 16.562 23.438v9.843a4.695 4.695 0 003.125 4.419v1.831a4.693 4.693 0 004.688 4.688h1.372a16.951 16.951 0 002.621 4.058c.221.255.452.501.689.741l-2.665 5.33-7.427 2.474c-8.635 2.88-14.902 11.97-14.902 21.615 0 .864.699 1.563 1.562 1.563h68.75c.863 0 1.563-.7 1.563-1.563 0-9.645-6.268-18.735-14.903-21.615zm-.722-23.54c0 .86-.701 1.562-1.563 1.562h-2.385c.398-3.077.662-6.35.769-9.575l.008-.269h3.17v8.281zM21.25 34.843a1.564 1.564 0 01-1.563-1.563V25h3.172c.005.163.01.327.017.492v.018c.11 3.136.371 6.325.76 9.334H21.25zm3.125 6.25a1.564 1.564 0 01-1.563-1.563v-1.56h1.281l.333 1.993c.063.38.141.757.232 1.132h-.283zm-1.56-19.219h-3.068c.791-10.472 9.53-18.75 20.253-18.75 10.675 0 19.453 8.277 20.253 18.75h-3.068c-.113-8.63-7.14-15.625-15.786-15.625h-2.797c-8.647 0-15.674 6.996-15.787 15.625zm15.787-12.5h2.796c7.002 0 12.669 5.727 12.664 12.72 0 .492-.003.92-.012 1.31v.015l-1.954-.28a25.108 25.108 0 01-14.116-7.057 1.563 1.563 0 00-1.105-.458 14.136 14.136 0 00-10.868 5.142c.654-6.362 6.032-11.392 12.595-11.392zm-10.705 31.72c-.782-2.602-1.677-10.259-1.875-15.165l2.103-2.804a10.998 10.998 0 018.133-4.357 28.261 28.261 0 0015.396 7.466l2.3.329a96.144 96.144 0 01-.918 9.55v.003c-.144.968-.256 1.591-.544 3.332-.828 4.963-4.531 9.451-9.42 10.674a12.71 12.71 0 01-6.143 0c-3.053-.764-5.852-2.876-7.658-5.903h3.185a4.695 4.695 0 004.419 3.125H40a4.686 4.686 0 004.688-4.688A4.693 4.693 0 0040 37.97h-3.125a4.69 4.69 0 00-4.421 3.125h-4.557zm8.847 12.19c1.071.226 2.164.341 3.256.341.855 0 1.71-.072 2.555-.21l-2.76 2.92-3.051-3.051zm.902 5.322l-4.956 5.241a59.519 59.519 0 01-3.498-8.112l1.861-3.722 6.593 6.593zm11.036-7.123l2.126 4.252a59.526 59.526 0 01-3.499 8.114l-5.304-5.304 6.677-7.062zm-13.37-8.827c0-.862.7-1.562 1.563-1.562H40a1.563 1.563 0 010 3.125h-3.125a1.564 1.564 0 01-1.563-1.563zM7.25 76.875c.62-7.74 5.77-14.776 12.703-17.088l6.578-2.192a62.628 62.628 0 004.447 9.647l.009.016a62.646 62.646 0 004.277 6.531l1.922 3.086H7.25zM40 75.482l-2.12-3.402a1.533 1.533 0 00-.075-.11 59.594 59.594 0 01-3.52-5.26l5.572-5.893 5.871 5.871a59.51 59.51 0 01-3.533 5.28c-.076.103.032-.058-2.195 3.514zm2.814 1.393l1.922-3.086a62.647 62.647 0 004.307-6.583l.023-.041c0-.002.002-.004.003-.005a62.594 62.594 0 004.4-9.565l6.577 2.192c6.933 2.312 12.085 9.348 12.704 17.088H42.814z" fill="#22224A"/><path d="M68.054 70.552a15.622 15.622 0 00-4.423-5.37 1.562 1.562 0 10-1.906 2.477 12.477 12.477 0 013.533 4.29 1.563 1.563 0 002.796-1.397z" fill="#22224A"/></svg>