<svg width="80" height="80" fill="none" xmlns="http://www.w3.org/2000/svg"><g clip-path="url(#clip0)" fill="#222"><path d="M78.436 20.055L40.78 6.77a2.342 2.342 0 00-1.56 0L1.564 20.055a2.344 2.344 0 00-.005 4.419L39.215 37.86a2.343 2.343 0 001.57 0l37.656-13.387a2.344 2.344 0 00-.005-4.419zM74.37 51.34V30.896l-4.687 1.666V51.34a4.704 4.704 0 000 8.162v11.519a2.344 2.344 0 004.688 0V59.503a4.704 4.704 0 000-8.163z"/><path d="M40 42.684a7.014 7.014 0 01-2.355-.406l-21.17-7.526v10.314c0 2.523 2.633 4.657 7.824 6.342 4.526 1.469 10.102 2.277 15.701 2.277 5.6 0 11.175-.808 15.7-2.277 5.192-1.685 7.824-3.82 7.824-6.342V34.752l-21.169 7.526c-.758.27-1.55.406-2.355.406z"/></g><defs><clipPath id="clip0"><path fill="#fff" d="M0 0h80v80H0z"/></clipPath></defs></svg>